<svg xmlns="http://www.w3.org/2000/svg" xmlns:xlink="http://www.w3.org/1999/xlink" width="500" zoomAndPan="magnify" viewBox="0 0 375 374.999991" height="500" preserveAspectRatio="xMidYMid meet" version="1.0"><defs><g/><clipPath id="0d22968491"><path d="M 12 118 L 367.414062 118 L 367.414062 309.894531 L 12 309.894531 Z M 12 118 " clip-rule="nonzero"/></clipPath><clipPath id="cf28b5e9be"><path d="M 38 78.894531 L 342 78.894531 L 342 289 L 38 289 Z M 38 78.894531 " clip-rule="nonzero"/></clipPath><clipPath id="ac6144a377"><path d="M 156 118 L 218 118 L 218 225 L 156 225 Z M 156 118 " clip-rule="nonzero"/></clipPath><clipPath id="e619edde07"><path d="M 109.886719 133.933594 L 220.097656 84.597656 L 269.433594 194.808594 L 159.222656 244.144531 Z M 109.886719 133.933594 " clip-rule="nonzero"/></clipPath><clipPath id="73376e4816"><path d="M 109.886719 133.933594 L 220.097656 84.597656 L 269.433594 194.808594 L 159.222656 244.144531 Z M 109.886719 133.933594 " clip-rule="nonzero"/></clipPath><clipPath id="daa64b3d45"><path d="M 109.886719 133.933594 L 220.097656 84.597656 L 269.433594 194.808594 L 159.222656 244.144531 Z M 109.886719 133.933594 " clip-rule="nonzero"/></clipPath><clipPath id="db1726b8ab"><path d="M 154 217 L 179 217 L 179 245 L 154 245 Z M 154 217 " clip-rule="nonzero"/></clipPath><clipPath id="29e9aebe5c"><path d="M 109.886719 133.933594 L 220.097656 84.597656 L 269.433594 194.808594 L 159.222656 244.144531 Z M 109.886719 133.933594 " clip-rule="nonzero"/></clipPath><clipPath id="80f255ad32"><path d="M 109.886719 133.933594 L 220.097656 84.597656 L 269.433594 194.808594 L 159.222656 244.144531 Z M 109.886719 133.933594 " clip-rule="nonzero"/></clipPath><clipPath id="dec2eedb96"><path d="M 109.886719 133.933594 L 220.097656 84.597656 L 269.433594 194.808594 L 159.222656 244.144531 Z M 109.886719 133.933594 " clip-rule="nonzero"/></clipPath><clipPath id="8c1eab14f6"><path d="M 199 91 L 227 91 L 227 112 L 199 112 Z M 199 91 " clip-rule="nonzero"/></clipPath><clipPath id="a0b8144dfd"><path d="M 109.886719 133.933594 L 220.097656 84.597656 L 269.433594 194.808594 L 159.222656 244.144531 Z M 109.886719 133.933594 " clip-rule="nonzero"/></clipPath><clipPath id="731a8970db"><path d="M 109.886719 133.933594 L 220.097656 84.597656 L 269.433594 194.808594 L 159.222656 244.144531 Z M 109.886719 133.933594 " clip-rule="nonzero"/></clipPath><clipPath id="ed6a6d55b7"><path d="M 109.886719 133.933594 L 220.097656 84.597656 L 269.433594 194.808594 L 159.222656 244.144531 Z M 109.886719 133.933594 " clip-rule="nonzero"/></clipPath><clipPath id="549fb151d9"><path d="M 194 106 L 223 106 L 223 124 L 194 124 Z M 194 106 " clip-rule="nonzero"/></clipPath><clipPath id="96e58f844d"><path d="M 109.886719 133.933594 L 220.097656 84.597656 L 269.433594 194.808594 L 159.222656 244.144531 Z M 109.886719 133.933594 " clip-rule="nonzero"/></clipPath><clipPath id="3a0e2561cb"><path d="M 109.886719 133.933594 L 220.097656 84.597656 L 269.433594 194.808594 L 159.222656 244.144531 Z M 109.886719 133.933594 " clip-rule="nonzero"/></clipPath><clipPath id="005259e099"><path d="M 109.886719 133.933594 L 220.097656 84.597656 L 269.433594 194.808594 L 159.222656 244.144531 Z M 109.886719 133.933594 " clip-rule="nonzero"/></clipPath></defs><g clip-path="url(#0d22968491)"><path fill="#000000" d="M 346.316406 118.773438 L 346.253906 119.371094 L 333.003906 266.242188 L 332.425781 272.929688 L 325.734375 272.058594 L 320.746094 271.402344 C 310.761719 270.113281 300.949219 269.429688 291.570312 269.429688 C 246.324219 269.429688 218.804688 284.714844 206.445312 293.824219 L 189.753906 295.085938 L 189.714844 295.085938 L 173.023438 293.824219 C 160.664062 284.714844 133.144531 269.429688 87.902344 269.429688 C 78.519531 269.429688 68.707031 270.113281 58.726562 271.402344 L 53.734375 272.058594 L 47.046875 272.929688 L 46.464844 266.242188 L 33.214844 119.371094 L 33.152344 118.773438 L 12.03125 118.773438 L 33.566406 285.105469 L 175.53125 309.644531 L 203.9375 309.644531 L 345.902344 285.105469 L 367.4375 118.773438 L 346.316406 118.773438 " fill-opacity="1" fill-rule="nonzero"/></g><g clip-path="url(#cf28b5e9be)"><path fill="#000000" d="M 57.273438 109.933594 L 58.082031 118.359375 L 68.933594 232.617188 L 72.679688 233.175781 C 73.363281 233.257812 125.773438 241.3125 161.140625 268.085938 C 144.160156 260.195312 120.121094 253.261719 88.191406 253.261719 C 79.847656 253.261719 71.046875 253.738281 61.644531 254.769531 L 49.40625 118.773438 L 48.683594 110.714844 C 51.664062 110.382812 54.5 110.15625 57.273438 109.933594 Z M 145.152344 109.578125 C 168.65625 122 181.097656 136.246094 184.722656 140.867188 L 184.722656 277.09375 C 154.203125 240.050781 93.738281 227.066406 77.859375 224.230469 L 67.730469 117.382812 L 65.019531 88.910156 C 99.808594 90.589844 126.125 99.496094 145.152344 109.578125 Z M 194.746094 140.867188 C 198.367188 136.246094 210.8125 122 234.316406 109.578125 C 253.34375 99.496094 279.660156 90.589844 314.449219 88.910156 L 311.738281 117.382812 L 301.613281 224.230469 C 285.730469 227.066406 225.269531 240.050781 194.746094 277.09375 Z M 321.386719 118.359375 L 322.195312 109.933594 C 324.96875 110.15625 327.804688 110.382812 330.785156 110.714844 L 330.0625 118.773438 L 317.824219 254.769531 C 308.425781 253.738281 299.625 253.261719 291.277344 253.261719 C 259.351562 253.261719 235.3125 260.195312 218.332031 268.085938 C 253.699219 241.3125 306.105469 233.257812 306.789062 233.175781 L 310.535156 232.617188 Z M 52.886719 265.664062 L 57.898438 265.023438 C 92.1875 260.484375 119.023438 264.066406 139.085938 270.175781 C 141.054688 270.800781 142.960938 271.402344 144.800781 272.058594 C 146.644531 272.703125 148.402344 273.386719 150.125 274.046875 C 151.84375 274.734375 153.476562 275.417969 155.070312 276.121094 C 162.980469 279.640625 169.316406 283.386719 174.140625 286.679688 C 175.117188 287.363281 176.027344 288.007812 176.855469 288.628906 L 202.613281 288.628906 C 203.441406 288.007812 204.355469 287.363281 205.328125 286.679688 C 210.152344 283.386719 216.488281 279.640625 224.394531 276.121094 C 225.992188 275.417969 227.628906 274.734375 229.347656 274.046875 C 231.066406 273.386719 232.824219 272.703125 234.664062 272.058594 C 236.511719 271.402344 238.414062 270.800781 240.382812 270.175781 C 260.445312 264.066406 287.28125 260.484375 321.574219 265.023438 L 326.582031 265.664062 L 339.816406 118.773438 L 341.304688 102.144531 L 336.625 101.605469 C 331.90625 101.046875 327.390625 100.59375 323.105469 100.300781 L 325.132812 78.890625 L 319.667969 79.015625 C 272 80.257812 238.972656 94.050781 217.585938 107.859375 C 203.546875 116.949219 194.539062 126.039062 189.753906 131.628906 L 189.734375 131.609375 L 189.714844 131.628906 C 184.929688 126.039062 175.921875 116.949219 161.886719 107.859375 C 140.496094 94.050781 107.46875 80.257812 59.800781 79.015625 L 54.335938 78.890625 L 56.363281 100.300781 C 52.078125 100.59375 47.5625 101.046875 42.84375 101.605469 L 38.164062 102.144531 L 39.65625 118.773438 L 52.886719 265.664062 " fill-opacity="1" fill-rule="nonzero"/></g><g clip-path="url(#ac6144a377)"><g clip-path="url(#e619edde07)"><g clip-path="url(#73376e4816)"><g clip-path="url(#daa64b3d45)"><path fill="#000000" d="M 156.589844 214.863281 L 164.15625 213.148438 L 168.636719 219.476562 L 176.191406 217.742188 L 180.691406 224.058594 L 217.507812 127.5625 L 193.40625 118.367188 Z M 156.589844 214.863281 " fill-opacity="1" fill-rule="nonzero"/></g></g></g></g><g clip-path="url(#db1726b8ab)"><g clip-path="url(#29e9aebe5c)"><g clip-path="url(#80f255ad32)"><g clip-path="url(#dec2eedb96)"><path fill="#000000" d="M 166.792969 224.300781 L 162.3125 217.972656 L 154.875 219.65625 L 159.222656 244.144531 L 178.777344 228.777344 L 174.351562 222.566406 Z M 166.792969 224.300781 " fill-opacity="1" fill-rule="nonzero"/></g></g></g></g><g clip-path="url(#8c1eab14f6)"><g clip-path="url(#a0b8144dfd)"><g clip-path="url(#731a8970db)"><g clip-path="url(#ed6a6d55b7)"><path fill="#000000" d="M 224.199219 97.921875 L 208.160156 91.800781 C 205.9375 90.9375 203.445312 92.050781 202.609375 94.285156 L 199.566406 102.308594 L 223.640625 111.496094 L 226.683594 103.46875 C 227.550781 101.246094 226.433594 98.757812 224.199219 97.921875 Z M 224.199219 97.921875 " fill-opacity="1" fill-rule="nonzero"/></g></g></g></g><g clip-path="url(#549fb151d9)"><g clip-path="url(#96e58f844d)"><g clip-path="url(#3a0e2561cb)"><g clip-path="url(#005259e099)"><path fill="#000000" d="M 194.945312 114.355469 L 198.011719 106.328125 L 222.101562 115.515625 L 219.035156 123.546875 Z M 194.945312 114.355469 " fill-opacity="1" fill-rule="nonzero"/></g></g></g></g><g fill="#000000" fill-opacity="1"><g transform="translate(101.403475, 198.043899)"><g><path d="M 14.632812 -35.351562 C 10.789062 -38.128906 6.300781 -43.683594 13.992188 -45.605469 L 17.621094 -46.355469 C 18.691406 -46.675781 19.867188 -46.78125 20.933594 -46.886719 C 24.671875 -46.996094 28.089844 -46.460938 31.507812 -46.035156 C 33.214844 -45.820312 34.925781 -45.5 36.527344 -44.859375 C 36.953125 -44.539062 37.597656 -44.539062 38.238281 -44.859375 C 39.410156 -45.179688 40.371094 -45.714844 41.546875 -46.246094 C 42.296875 -46.675781 42.828125 -47.207031 43.257812 -47.957031 C 43.683594 -48.703125 44.324219 -49.34375 44.75 -50.199219 C 45.285156 -51.054688 45.820312 -52.121094 45.925781 -52.867188 C 46.035156 -54.683594 46.675781 -56.5 47.527344 -58.316406 C 47.742188 -58.851562 47.742188 -59.382812 47.847656 -59.917969 C 47.847656 -60.132812 47.847656 -60.453125 47.957031 -60.664062 C 48.277344 -61.519531 47.957031 -61.949219 47.421875 -62.375 C 46.035156 -63.441406 44.21875 -63.871094 42.296875 -64.082031 L 36.953125 -64.832031 C 31.082031 -65.257812 24.992188 -65.042969 18.476562 -62.695312 C 17.300781 -62.160156 16.019531 -61.839844 14.738281 -61.308594 C 10.46875 -58.957031 6.300781 -56.394531 3.203125 -52.546875 C -0.214844 -48.382812 -2.457031 -42.828125 0 -38.769531 C 1.28125 -36.3125 2.992188 -33.964844 5.339844 -32.148438 C 7.371094 -30.441406 9.503906 -28.945312 11.855469 -27.554688 C 15.699219 -25.3125 19.546875 -22.964844 22.855469 -20.292969 C 24.886719 -18.691406 25.847656 -16.554688 26.59375 -14.097656 C 26.914062 -13.457031 26.59375 -12.601562 25.632812 -11.855469 C 24.351562 -10.679688 22.855469 -9.824219 21.46875 -9.183594 C 19.546875 -8.222656 17.515625 -7.476562 15.59375 -6.621094 C 13.671875 -5.765625 11.640625 -5.339844 9.71875 -5.019531 C 8.652344 -4.804688 7.582031 -4.914062 6.730469 -5.234375 C 5.980469 -5.445312 5.660156 -5.980469 5.765625 -6.730469 C 5.875 -7.796875 5.875 -8.652344 6.089844 -9.613281 C 6.300781 -11.214844 7.050781 -12.496094 8.117188 -13.886719 L 10.039062 -16.554688 C 10.359375 -16.980469 10.46875 -17.300781 10.359375 -17.621094 C 10.253906 -18.15625 10.253906 -18.585938 10.253906 -19.117188 C 10.039062 -19.117188 9.71875 -19.226562 9.183594 -19.332031 L 10.574219 -20.078125 C 9.71875 -20.398438 9.292969 -19.4375 8.652344 -19.226562 C 7.050781 -19.4375 6.621094 -19.117188 5.765625 -17.515625 C 5.554688 -17.195312 5.339844 -16.769531 5.019531 -16.554688 C 3.3125 -15.058594 1.921875 -13.351562 0.746094 -11.640625 C -0.640625 -9.824219 -1.601562 -8.011719 -2.351562 -6.195312 C -3.3125 -3.203125 -2.882812 -0.960938 -1.28125 0.746094 C 0.535156 2.671875 3.3125 3.523438 6.195312 3.953125 C 8.117188 4.273438 10.039062 4.164062 12.28125 3.632812 C 13.242188 3.3125 13.992188 3.097656 14.847656 2.671875 C 15.808594 2.136719 16.660156 2.03125 17.621094 2.03125 C 18.796875 2.136719 20.078125 2.03125 21.253906 1.386719 C 23.710938 0.425781 25.953125 -0.855469 27.984375 -2.777344 C 28.515625 -3.203125 29.050781 -3.84375 29.371094 -4.273438 C 30.226562 -5.234375 30.867188 -6.410156 31.402344 -7.476562 C 33.214844 -10.679688 33.644531 -13.777344 33.003906 -16.554688 C 31.933594 -20.613281 29.90625 -23.925781 27.023438 -26.488281 C 24.992188 -28.195312 23.070312 -29.90625 20.613281 -31.1875 C 20.292969 -31.292969 19.972656 -31.507812 19.652344 -31.722656 C 18.050781 -33.003906 16.339844 -34.285156 14.632812 -35.351562 Z M 14.632812 -35.351562 "/></g></g></g><g fill="#000000" fill-opacity="1"><g transform="translate(228.998808, 199.627171)"><g><path d="M 40.433594 -36.085938 C 40.433594 -36.847656 40.433594 -37.609375 40.542969 -38.371094 C 40.871094 -40.21875 40.976562 -42.066406 41.628906 -43.804688 C 42.390625 -46.085938 42.933594 -48.371094 42.933594 -50.761719 C 42.933594 -51.195312 43.042969 -51.628906 43.042969 -51.957031 C 43.585938 -55.109375 44.023438 -58.152344 44.457031 -61.304688 C 44.890625 -63.695312 45.109375 -66.085938 44.566406 -68.476562 C 44.457031 -69.023438 44.238281 -69.671875 43.914062 -70.21875 C 43.152344 -71.195312 42.28125 -72.066406 41.414062 -72.933594 C 40.976562 -73.371094 40.433594 -73.585938 39.890625 -73.695312 L 35 -74.890625 C 33.804688 -75.21875 33.476562 -75.109375 32.824219 -73.914062 C 31.085938 -70.324219 29.457031 -66.523438 28.476562 -62.609375 C 28.042969 -60.324219 27.609375 -58.042969 27.390625 -55.652344 C 27.28125 -53.695312 26.628906 -51.957031 25.433594 -50.21875 L 17.066406 -37.066406 C 14.675781 -33.476562 12.609375 -29.566406 9.675781 -26.304688 C 9.457031 -26.085938 9.347656 -25.761719 9.128906 -25.433594 L 5.652344 -21.414062 C 5.433594 -21.195312 4.890625 -21.085938 4.675781 -21.195312 C 3.585938 -21.628906 2.5 -22.066406 1.523438 -22.609375 C 0.871094 -23.042969 0.21875 -23.371094 -0.542969 -23.042969 C -0.761719 -22.28125 -0.542969 -21.738281 0 -21.195312 L 2.175781 -19.566406 L 3.152344 -18.695312 C 1.738281 -16.847656 3.476562 -18.585938 1.957031 -17.066406 L -0.976562 -14.023438 C -2.824219 -11.847656 -4.675781 -9.566406 -6.414062 -7.28125 C -4.457031 -4.566406 -6.847656 -1.085938 -1.304688 -1.957031 C 0.976562 -1.195312 -2.175781 -3.371094 0.324219 -3.585938 C 0.976562 -3.695312 1.304688 -3.914062 1.738281 -4.347656 C 3.585938 -7.390625 5.976562 -10.21875 7.824219 -13.476562 C 8.695312 -14.890625 10 -16.628906 11.847656 -17.28125 C 13.695312 -17.71875 15.652344 -18.261719 17.390625 -18.804688 C 19.675781 -19.675781 21.957031 -20.324219 23.914062 -21.847656 C 24.238281 -22.066406 24.675781 -22.175781 25.109375 -22.390625 L 25.433594 -20.652344 C 25.761719 -15.871094 26.085938 -11.195312 27.5 -6.628906 L 28.152344 -4.023438 C 28.152344 -3.695312 28.152344 -3.042969 28.042969 -3.042969 C 27.390625 -2.71875 27.609375 -2.175781 27.609375 -1.738281 C 28.261719 0.976562 29.238281 3.585938 30.761719 5.976562 C 31.195312 6.628906 31.847656 7.066406 32.5 7.609375 C 32.933594 7.933594 33.585938 8.261719 34.347656 8.042969 C 34.347656 6.738281 35.433594 7.175781 36.304688 7.066406 C 36.304688 6.847656 36.304688 6.628906 36.414062 6.523438 L 36.738281 6.085938 L 37.71875 7.066406 C 37.824219 6.085938 37.933594 5.21875 37.933594 4.347656 C 37.933594 3.152344 37.824219 1.957031 37.824219 0.761719 C 37.71875 -0.976562 37.609375 -2.609375 37.28125 -4.347656 C 36.957031 -6.523438 36.738281 -8.695312 37.28125 -10.871094 C 37.390625 -11.628906 37.5 -12.28125 37.5 -13.042969 C 37.609375 -15.871094 37.609375 -18.804688 37.609375 -21.523438 C 37.824219 -21.738281 37.933594 -21.847656 38.042969 -21.847656 C 38.042969 -21.957031 38.152344 -21.957031 38.261719 -22.066406 C 39.023438 -22.5 39.238281 -23.804688 38.585938 -23.914062 C 38.371094 -23.695312 38.261719 -23.371094 37.824219 -22.933594 C 37.824219 -23.695312 37.824219 -24.238281 38.371094 -24.457031 C 39.238281 -24.78125 39.238281 -25.433594 39.347656 -26.195312 C 39.347656 -27.175781 39.566406 -28.261719 39.566406 -29.238281 C 39.566406 -29.890625 39.890625 -30.324219 40.433594 -30.652344 C 43.371094 -32.390625 46.085938 -34.347656 49.128906 -35.871094 C 49.671875 -36.085938 50.324219 -36.304688 50.542969 -36.957031 C 49.78125 -37.28125 49.238281 -37.71875 48.585938 -37.933594 C 48.152344 -38.152344 47.609375 -38.261719 47.171875 -38.152344 C 45.652344 -38.042969 44.238281 -37.609375 42.824219 -36.847656 L 40.652344 -35.871094 Z M 19.78125 -33.261719 C 23.585938 -40.21875 26.414062 -46.628906 25.542969 -34.890625 C 25.433594 -33.152344 25.324219 -31.304688 25.324219 -29.566406 C 25.21875 -28.804688 25 -28.371094 24.238281 -28.042969 C 16.085938 -22.71875 13.371094 -24.890625 19.78125 -33.261719 Z M 19.78125 -33.261719 "/></g></g></g></svg>